<?xml version="1.0" encoding="UTF-8"?>
<!DOCTYPE svg PUBLIC "-//W3C//DTD SVG 1.1//EN" "http://www.w3.org/Graphics/SVG/1.1/DTD/svg11.dtd">
<svg xmlns="http://www.w3.org/2000/svg" version="1.1" width="1080px" height="1080px" style="shape-rendering:geometricPrecision; text-rendering:geometricPrecision; image-rendering:optimizeQuality; fill-rule:evenodd; clip-rule:evenodd" xmlns:xlink="http://www.w3.org/1999/xlink">
<g><path style="opacity:0.931" fill="#fefffe" d="M 56.5,453.5 C 77.1994,453.099 97.8661,453.599 118.5,455C 137.966,460.422 147.299,473.255 146.5,493.5C 146.464,517.703 134.464,531.536 110.5,535C 98.1712,535.5 85.8378,535.667 73.5,535.5C 73.6666,554.17 73.4999,572.836 73,591.5C 72.5,593.333 71.3333,594.5 69.5,595C 65.1667,595.667 60.8333,595.667 56.5,595C 55.3333,594.5 54.5,593.667 54,592.5C 53.3333,547.5 53.3333,502.5 54,457.5C 54.6622,456.016 55.4955,454.683 56.5,453.5 Z M 73.5,470.5 C 84.8382,470.333 96.1716,470.5 107.5,471C 123.87,475.894 129.703,486.727 125,503.5C 122.5,510 118,514.5 111.5,517C 98.8944,518.42 86.2278,518.92 73.5,518.5C 73.5,502.5 73.5,486.5 73.5,470.5 Z"/></g>
<g><path style="opacity:0.932" fill="#fefffe" d="M 445.5,453.5 C 465.869,453.087 486.203,453.587 506.5,455C 521.065,458.898 530.231,468.064 534,482.5C 539.074,508.071 529.574,525.238 505.5,534C 490.873,535.373 476.207,535.873 461.5,535.5C 461.667,554.503 461.5,573.503 461,592.5C 458.347,594.941 455.18,595.941 451.5,595.5C 447.82,595.941 444.653,594.941 442,592.5C 441.333,547.5 441.333,502.5 442,457.5C 442.69,455.65 443.856,454.316 445.5,453.5 Z M 461.5,470.5 C 472.838,470.333 484.172,470.5 495.5,471C 508.153,473.153 514.486,480.653 514.5,493.5C 515.082,504.947 510.082,512.781 499.5,517C 486.894,518.42 474.228,518.92 461.5,518.5C 461.5,502.5 461.5,486.5 461.5,470.5 Z"/></g>
<g><path style="opacity:0.919" fill="#fefffe" d="M 195.5,487.5 C 206.068,486.766 216.401,487.932 226.5,491C 235.036,494.202 240.869,500.036 244,508.5C 245.292,531.45 245.959,554.45 246,577.5C 246.371,581.762 247.204,585.929 248.5,590C 247.899,591.605 246.899,592.938 245.5,594C 235.219,598.601 229.886,595.434 229.5,584.5C 222.889,588.57 215.889,592.07 208.5,595C 196.02,597.738 184.02,596.405 172.5,591C 160.931,580.536 157.431,567.703 162,552.5C 164.753,546.754 168.586,541.921 173.5,538C 180.683,533.954 188.35,531.287 196.5,530C 206.474,528.946 216.474,528.446 226.5,528.5C 226.839,523.07 226.339,517.736 225,512.5C 223.235,509.527 220.735,507.36 217.5,506C 207.461,503.166 197.461,503.499 187.5,507C 183.101,508.683 178.768,510.516 174.5,512.5C 170.16,510.192 167.493,506.525 166.5,501.5C 166.76,499.813 167.427,498.313 168.5,497C 176.892,491.827 185.892,488.661 195.5,487.5 Z M 216.5,544.5 C 219.833,544.5 223.167,544.5 226.5,544.5C 226.666,551.841 226.5,559.174 226,566.5C 215.979,576.841 203.812,581.007 189.5,579C 180.227,573.268 178.061,565.435 183,555.5C 187.78,549.752 193.946,546.585 201.5,546C 206.684,545.826 211.684,545.326 216.5,544.5 Z"/></g>
<g><path style="opacity:0.911" fill="#fefffe" d="M 295.5,487.5 C 305.718,486.856 315.718,488.022 325.5,491C 330.289,492.936 331.622,496.269 329.5,501C 328.74,506.444 325.74,508.777 320.5,508C 313.196,504.139 305.53,503.139 297.5,505C 287.237,509.915 285.904,516.582 293.5,525C 301.494,528.126 309.494,531.126 317.5,534C 325.417,537.185 330.917,542.685 334,550.5C 339.826,571.679 332.66,586.512 312.5,595C 298.273,597.716 284.606,596.049 271.5,590C 265.153,584.244 265.486,578.578 272.5,573C 273.833,572.333 275.167,572.333 276.5,573C 287.72,580.325 299.387,581.325 311.5,576C 317.748,568.599 318.082,560.932 312.5,553C 310.5,551.667 308.5,550.333 306.5,549C 295.16,546.66 284.827,542.16 275.5,535.5C 270.826,530.658 268.826,524.825 269.5,518C 270.432,501.235 279.099,491.068 295.5,487.5 Z"/></g>
<g><path style="opacity:0.912" fill="#fefffe" d="M 377.5,487.5 C 387.736,486.79 397.736,487.957 407.5,491C 413.443,492.608 414.943,496.108 412,501.5C 411.117,504.102 409.617,506.269 407.5,508C 401.144,506.392 394.644,504.892 388,503.5C 382.238,503.751 377.238,505.751 373,509.5C 369.899,516.35 371.399,521.85 377.5,526C 388.429,528.966 398.762,533.299 408.5,539C 415.95,545.239 419.283,553.239 418.5,563C 416.543,584.947 404.376,596.113 382,596.5C 370.093,596.751 359.426,593.418 350,586.5C 349.089,579.988 351.589,575.321 357.5,572.5C 361.869,575.263 366.535,577.429 371.5,579C 377.167,579.667 382.833,579.667 388.5,579C 398.04,574.727 401.207,567.561 398,557.5C 396.878,555.376 395.378,553.543 393.5,552C 383.268,547.52 372.935,543.186 362.5,539C 353.115,532.19 349.615,523.023 352,511.5C 355.734,498.391 364.234,490.391 377.5,487.5 Z"/></g>
<g><path style="opacity:0.909" fill="#fefffe" d="M 583.5,487.5 C 597.36,485.972 610.36,488.472 622.5,495C 629.572,501.197 633.405,509.03 634,518.5C 634.333,540.167 634.667,561.833 635,583.5C 637.189,587.552 636.689,591.052 633.5,594C 623.561,598.206 618.227,595.039 617.5,584.5C 611.122,589.022 604.122,592.522 596.5,595C 583.495,597.999 571.162,596.332 559.5,590C 551.635,583.576 547.968,575.242 548.5,565C 548.538,549.918 555.538,539.585 569.5,534C 584.168,529.693 599.168,527.86 614.5,528.5C 615.128,522.238 614.295,516.238 612,510.5C 606.838,506.201 600.838,503.868 594,503.5C 583.018,504.328 572.684,507.328 563,512.5C 558.553,510.204 555.719,506.537 554.5,501.5C 554.76,499.813 555.427,498.313 556.5,497C 564.892,491.827 573.892,488.661 583.5,487.5 Z M 605.5,544.5 C 608.5,544.5 611.5,544.5 614.5,544.5C 614.666,552.174 614.5,559.841 614,567.5C 603.988,576.921 592.155,580.754 578.5,579C 571.868,576.521 568.534,571.688 568.5,564.5C 569.884,554.615 575.551,548.781 585.5,547C 592.285,546.001 598.952,545.168 605.5,544.5 Z"/></g>
<g><path style="opacity:0.924" fill="#fefffe" d="M 705.5,487.5 C 715.132,486.328 724.132,488.162 732.5,493C 735.731,495.727 738.397,498.894 740.5,502.5C 757.248,485.368 775.748,483.034 796,495.5C 800.88,501.263 803.547,507.93 804,515.5C 804.806,541.863 804.64,568.197 803.5,594.5C 798.537,595.496 793.537,595.663 788.5,595C 787.667,594.167 786.833,593.333 786,592.5C 785.954,566.459 785.287,540.459 784,514.5C 780.957,507.224 775.457,503.891 767.5,504.5C 757.671,505.15 749.838,509.483 744,517.5C 743.828,543.072 743.328,568.572 742.5,594C 736.896,596.129 731.396,595.962 726,593.5C 725.943,567.798 725.277,542.131 724,516.5C 721.621,508.123 715.954,504.123 707,504.5C 697.725,505.22 690.225,509.22 684.5,516.5C 683.667,541.827 683.167,567.16 683,592.5C 682.5,593.667 681.667,594.5 680.5,595C 676.5,595.667 672.5,595.667 668.5,595C 667.069,594.535 665.903,593.701 665,592.5C 664.882,559.117 664.215,525.784 663,492.5C 673.217,486.3 679.55,488.966 682,500.5C 688.667,493.92 696.5,489.586 705.5,487.5 Z"/></g>
<g><path style="opacity:0.92" fill="#fefffe" d="M 875.5,487.5 C 895.874,486.045 910.041,494.711 918,513.5C 923.131,530.31 923.798,547.31 920,564.5C 911.774,590.207 894.274,600.374 867.5,595C 862.672,593.06 858.172,590.56 854,587.5C 853.833,603.177 853.333,618.844 852.5,634.5C 847.755,636.547 842.755,637.047 837.5,636C 836.333,635.5 835.5,634.667 835,633.5C 834.667,591.167 834.333,548.833 834,506.5C 833.485,502.423 832.651,498.423 831.5,494.5C 832.313,493.186 833.313,492.019 834.5,491C 838.428,489.675 842.428,489.342 846.5,490C 849.418,492.962 851.252,496.462 852,500.5C 858.815,494.153 866.648,489.82 875.5,487.5 Z M 873.5,504.5 C 886.1,502.711 894.6,507.711 899,519.5C 902.366,531.251 903.366,543.251 902,555.5C 897.796,575.019 885.963,582.519 866.5,578C 861.971,576.486 857.805,574.319 854,571.5C 853.333,553.167 853.333,534.833 854,516.5C 859.888,511.315 866.388,507.315 873.5,504.5 Z"/></g>
<g><path style="opacity:0.917" fill="#fefffe" d="M 976.5,487.5 C 990.402,485.73 1003.4,488.23 1015.5,495C 1022.93,501.034 1026.77,508.867 1027,518.5C 1027.33,539.167 1027.67,559.833 1028,580.5C 1031.8,592.04 1027.63,596.873 1015.5,595C 1014.58,594.626 1013.75,594.126 1013,593.5C 1011.86,590.568 1011.02,587.568 1010.5,584.5C 1004.15,589.007 997.154,592.507 989.5,595C 976.495,597.999 964.162,596.332 952.5,590C 943.632,581.732 940.132,571.565 942,559.5C 944.012,547.152 950.845,538.652 962.5,534C 965.893,533.202 969.226,532.202 972.5,531C 984.345,529.446 996.178,528.279 1008,527.5C 1010.01,511.834 1003.01,503.834 987,503.5C 976.018,504.328 965.684,507.328 956,512.5C 943.933,503.728 945.099,496.894 959.5,492C 965.253,490.314 970.919,488.814 976.5,487.5 Z M 998.5,544.5 C 1001.83,544.5 1005.17,544.5 1008.5,544.5C 1008.67,551.841 1008.5,559.174 1008,566.5C 997.836,576.498 985.669,580.665 971.5,579C 964.878,576.529 961.545,571.696 961.5,564.5C 962.921,554.579 968.588,548.745 978.5,547C 985.298,546.055 991.965,545.222 998.5,544.5 Z"/></g>
</svg>
